<?xml version="1.0" encoding="UTF-8"?>
<svg width="37px" height="37px" viewBox="0 0 37 37" version="1.1" xmlns="http://www.w3.org/2000/svg" xmlns:xlink="http://www.w3.org/1999/xlink">
    <!-- Generator: Sketch 63.1 (92452) - https://sketch.com -->
    <title>Group 3</title>
    <desc>Created with Sketch.</desc>
    <defs>
        <polygon id="path-1" points="0.278660611 0.000401207753 36.438218 0.000401207753 36.438218 20.7544027 0.278660611 20.7544027"></polygon>
    </defs>
    <g id="Page-1" stroke="none" stroke-width="1" fill="none" fill-rule="evenodd">
        <g id="The-accounting-automation-handbook-page" transform="translate(-702.000000, -37.000000)">
            <g id="Group-3" transform="translate(702.000000, 37.000000)">
                <path d="M7.27401061,19.0420512 C7.20901061,18.1550512 7.25151061,17.2455512 7.41251061,16.3305512 L2.51851061,14.5880512 L0.279010611,15.0730512 C0.00901061073,16.6045512 -0.0609893893,18.1265512 0.0515106107,19.6110512" id="Fill-12" fill="#2D1478"></path>
                <path d="M29.2051606,17.4375512 C29.2701606,18.3245512 29.2276606,19.2340512 29.0666606,20.1490512 C28.8031606,21.6410512 28.2486606,23.0105512 27.4716606,24.2085512 C26.6946606,25.4065512 25.6951606,26.4335512 24.5426606,27.2405512 C23.3896606,28.0485512 22.0831606,28.6360512 20.6916606,28.9565512 C19.2996606,29.2770512 17.8231606,29.3295512 16.3311606,29.0665512 C14.8386606,28.8030512 13.4686606,28.2485512 12.2711606,27.4715512 C11.0726606,26.6950512 10.0461606,25.6955512 9.23816061,24.5425512 C8.43116061,23.3890512 7.84266061,22.0825512 7.52266061,20.6910512 C7.39916061,20.1530512 7.31516061,19.6015512 7.27416061,19.0420512 C7.15366061,17.4040512 5.91516061,16.0665512 4.29766061,15.7810512 C1.97366061,15.3715512 -0.126339389,17.2585512 0.0511606107,19.6110512 C0.120160611,20.5260512 0.258160611,21.4265512 0.461160611,22.3060512 C0.992160611,24.6145512 1.96766061,26.7825512 3.30716061,28.6955512 C4.64666061,30.6085512 6.35016061,32.2660512 8.33766061,33.5550512 C10.3251606,34.8440512 12.5971606,35.7635512 15.0726606,36.2000512 C17.5491606,36.6365512 19.9981606,36.5495512 22.3066606,36.0180512 C24.6146606,35.4870512 26.7826606,34.5110512 28.6951606,33.1720512 C30.6086606,31.8325512 32.2661606,30.1295512 33.5551606,28.1415512 C34.8441606,26.1545512 35.7636606,23.8825512 36.2001606,21.4065512 C36.4706606,19.8745512 36.5401606,18.3530512 36.4276606,16.8680512" id="Fill-14" fill="#E4E1FF"></path>
                <mask id="mask-2" fill="white">
                    <use xlink:href="#path-1"></use>
                </mask>
                <g id="Clip-17"></g>
                <path d="M7.41316061,16.3306512 C7.67616061,14.8386512 8.23066061,13.4686512 9.00716061,12.2706512 C9.78416061,11.0726512 10.7836606,10.0461512 11.9366606,9.23815121 C13.0901606,8.43115121 14.3966606,7.84315121 15.7881606,7.52315121 C17.1796606,7.20265121 18.6556606,7.15015121 20.1486606,7.41315121 C21.6406606,7.67615121 23.0101606,8.23115121 24.2086606,9.00765121 C25.4061606,9.78465121 26.4331606,10.7841512 27.2406606,11.9371512 C28.0486606,13.0901512 28.6361606,14.3966512 28.9566606,15.7881512 C29.0806606,16.3266512 29.1646606,16.8781512 29.2056606,17.4376512 C29.3251606,19.0756512 30.5646606,20.4126512 32.1821606,20.6981512 C34.5056606,21.1081512 36.6056606,19.2206512 36.4276606,16.8681512 C36.3591606,15.9536512 36.2206606,15.0531512 36.0181606,14.1736512 C35.4866606,11.8646512 34.5116606,9.69665121 33.1721606,7.78415121 C31.8326606,5.87115121 30.1296606,4.21365121 28.1416606,2.92465121 C26.1536606,1.63515121 23.8821606,0.716151208 21.4061606,0.279151208 C18.9306606,-0.157848792 16.4816606,-0.0703487922 14.1731606,0.461651208 C11.8641606,0.992651208 9.69616061,1.96765121 7.78366061,3.30715121 C5.87066061,4.64665121 4.21316061,6.35015121 2.92366061,8.33815121 C1.63516061,10.3251512 0.715160611,12.5966512 0.278660611,15.0726512" id="Fill-16" fill="#2D1478" mask="url(#mask-2)"></path>
            </g>
        </g>
    </g>
</svg>